ply
format ascii 1.0
element vertex 80
property float x
property float y
property float z
element face 156
property list uchar int vertex_indices
end_header
-197 -67 40
-182.351 -35.6089 20
-182.351 -35.6089 -20
-197 -67 -40
-211.649 -98.3911 -20
-211.649 -98.3911 20
-182 -74 40
-167.854 -42.3791 20
-167.854 -42.3791 -20
-182 -74 -40
-196.146 -105.621 -20
-196.146 -105.621 20
-144 -91 40
-132.247 -58.4135 20
-132.247 -58.4135 -20
-144 -91 -40
-155.753 -123.586 -20
-155.753 -123.586 20
-83 -113 40
-73.046 -79.8199 20
-73.046 -79.8199 -20
-83 -113 -40
-92.954 -146.18 -20
-92.954 -146.18 20
-3 -137 40
5.40168 -103.393 20
5.40168 -103.393 -20
-3 -137 -40
-11.4017 -170.607 -20
-11.4017 -170.607 20
61 -153 40
68.5147 -119.184 20
68.5147 -119.184 -20
61 -153 -40
53.4853 -186.816 -20
53.4853 -186.816 20
133 -169 40
138.935 -134.871 20
138.935 -134.871 -20
133 -169 -40
127.065 -203.129 -20
127.065 -203.129 20
179 -177 40
183.803 -142.694 20
183.803 -142.694 -20
179 -177 -40
174.197 -211.306 -20
174.197 -211.306 20
229 -184 40
234.403 -149.783 20
234.403 -149.783 -20
229 -184 -40
223.597 -218.217 -20
223.597 -218.217 20
267 -190 40
270.447 -155.531 20
270.447 -155.531 -20
267 -190 -40
263.553 -224.469 -20
263.553 -224.469 20
287 -192 40
291.899 -157.707 20
291.899 -157.707 -20
287 -192 -40
282.101 -226.293 -20
282.101 -226.293 20
308 -195 40
312.899 -160.707 20
312.899 -160.707 -20
308 -195 -40
303.101 -229.293 -20
303.101 -229.293 20
322 -197 40
326.899 -162.707 20
326.899 -162.707 -20
322 -197 -40
317.101 -231.293 -20
317.101 -231.293 20
-197 -67 0
322 -197 0
3 0 6 1
3 6 7 1
3 1 7 2
3 7 8 2
3 2 8 3
3 8 9 3
3 3 9 4
3 9 10 4
3 4 10 5
3 10 11 5
3 5 11 0
3 11 6 0
3 6 12 7
3 12 13 7
3 7 13 8
3 13 14 8
3 8 14 9
3 14 15 9
3 9 15 10
3 15 16 10
3 10 16 11
3 16 17 11
3 11 17 6
3 17 12 6
3 12 18 13
3 18 19 13
3 13 19 14
3 19 20 14
3 14 20 15
3 20 21 15
3 15 21 16
3 21 22 16
3 16 22 17
3 22 23 17
3 17 23 12
3 23 18 12
3 18 24 19
3 24 25 19
3 19 25 20
3 25 26 20
3 20 26 21
3 26 27 21
3 21 27 22
3 27 28 22
3 22 28 23
3 28 29 23
3 23 29 18
3 29 24 18
3 24 30 25
3 30 31 25
3 25 31 26
3 31 32 26
3 26 32 27
3 32 33 27
3 27 33 28
3 33 34 28
3 28 34 29
3 34 35 29
3 29 35 24
3 35 30 24
3 30 36 31
3 36 37 31
3 31 37 32
3 37 38 32
3 32 38 33
3 38 39 33
3 33 39 34
3 39 40 34
3 34 40 35
3 40 41 35
3 35 41 30
3 41 36 30
3 36 42 37
3 42 43 37
3 37 43 38
3 43 44 38
3 38 44 39
3 44 45 39
3 39 45 40
3 45 46 40
3 40 46 41
3 46 47 41
3 41 47 36
3 47 42 36
3 42 48 43
3 48 49 43
3 43 49 44
3 49 50 44
3 44 50 45
3 50 51 45
3 45 51 46
3 51 52 46
3 46 52 47
3 52 53 47
3 47 53 42
3 53 48 42
3 48 54 49
3 54 55 49
3 49 55 50
3 55 56 50
3 50 56 51
3 56 57 51
3 51 57 52
3 57 58 52
3 52 58 53
3 58 59 53
3 53 59 48
3 59 54 48
3 54 60 55
3 60 61 55
3 55 61 56
3 61 62 56
3 56 62 57
3 62 63 57
3 57 63 58
3 63 64 58
3 58 64 59
3 64 65 59
3 59 65 54
3 65 60 54
3 60 66 61
3 66 67 61
3 61 67 62
3 67 68 62
3 62 68 63
3 68 69 63
3 63 69 64
3 69 70 64
3 64 70 65
3 70 71 65
3 65 71 60
3 71 66 60
3 66 72 67
3 72 73 67
3 67 73 68
3 73 74 68
3 68 74 69
3 74 75 69
3 69 75 70
3 75 76 70
3 70 76 71
3 76 77 71
3 71 77 66
3 77 72 66
3 78 0 1
3 79 73 72
3 78 1 2
3 79 74 73
3 78 2 3
3 79 75 74
3 78 3 4
3 79 76 75
3 78 4 5
3 79 77 76
3 78 5 0
3 79 72 77
