ply
format ascii 1.0
element vertex 122
property float x
property float y
property float z
element face 240
property list uchar int vertex_indices
end_header
-161 18 40
-193.593 29.7336 20
-193.593 29.7336 -20
-161 18 -40
-128.407 6.26641 -20
-128.407 6.26641 20
-152 43 40
-184.242 55.6666 20
-184.242 55.6666 -20
-152 43 -40
-119.758 30.3334 -20
-119.758 30.3334 20
-141 71 40
-168.189 92.4651 20
-168.189 92.4651 -20
-141 71 -40
-113.811 49.5349 -20
-113.811 49.5349 20
-126 90 40
-143.686 119.786 20
-143.686 119.786 -20
-126 90 -40
-108.314 60.2138 -20
-108.314 60.2138 20
-94 109 40
-85.373 142.55 20
-85.373 142.55 -20
-94 109 -40
-102.627 75.4504 -20
-102.627 75.4504 20
-24 91 40
-2.879 118.457 20
-2.879 118.457 -20
-24 91 -40
-45.121 63.5427 -20
-45.121 63.5427 20
67 21 40
88.3136 48.3081 20
88.3136 48.3081 -20
67 21 -40
45.6864 -6.30806 -20
45.6864 -6.30806 20
108 -11 40
124.268 19.5836 20
124.268 19.5836 -20
108 -11 -40
91.7321 -41.5836 -20
91.7321 -41.5836 20
155 -36 40
164.311 -2.6339 20
164.311 -2.6339 -20
155 -36 -40
145.689 -69.3661 -20
145.689 -69.3661 20
198 -48 40
195.77 -13.4309 20
195.77 -13.4309 -20
198 -48 -40
200.23 -82.5692 -20
200.23 -82.5692 20
229 -46 40
197.818 -30.9117 20
197.818 -30.9117 -20
229 -46 -40
260.182 -61.0883 -20
260.182 -61.0883 20
244 -15 40
209.549 -11.3736 20
209.549 -11.3736 -20
244 -15 -40
278.451 -18.6264 -20
278.451 -18.6264 20
250 42 40
215.365 42.6535 20
215.365 42.6535 -20
250 42 -40
284.635 41.3465 -20
284.635 41.3465 20
251 95 40
216.383 96.3014 20
216.383 96.3014 -20
251 95 -40
285.617 93.6986 -20
285.617 93.6986 20
256 228 0
256 228 0
256 228 0
256 228 0
256 228 0
256 228 0
256 228 0
256 228 0
256 228 0
256 228 0
256 228 0
256 228 0
256 228 0
256 228 0
256 228 0
256 228 0
256 228 0
256 228 0
256 228 0
256 228 0
256 228 0
256 228 0
256 228 0
256 228 0
256 228 0
256 228 0
256 228 0
256 228 0
256 228 0
256 228 0
256 228 0
256 228 0
256 228 0
256 228 0
256 228 0
256 228 0
-161 18 0
256 228 0
3 0 6 1
3 6 7 1
3 1 7 2
3 7 8 2
3 2 8 3
3 8 9 3
3 3 9 4
3 9 10 4
3 4 10 5
3 10 11 5
3 5 11 0
3 11 6 0
3 6 12 7
3 12 13 7
3 7 13 8
3 13 14 8
3 8 14 9
3 14 15 9
3 9 15 10
3 15 16 10
3 10 16 11
3 16 17 11
3 11 17 6
3 17 12 6
3 12 18 13
3 18 19 13
3 13 19 14
3 19 20 14
3 14 20 15
3 20 21 15
3 15 21 16
3 21 22 16
3 16 22 17
3 22 23 17
3 17 23 12
3 23 18 12
3 18 24 19
3 24 25 19
3 19 25 20
3 25 26 20
3 20 26 21
3 26 27 21
3 21 27 22
3 27 28 22
3 22 28 23
3 28 29 23
3 23 29 18
3 29 24 18
3 24 30 25
3 30 31 25
3 25 31 26
3 31 32 26
3 26 32 27
3 32 33 27
3 27 33 28
3 33 34 28
3 28 34 29
3 34 35 29
3 29 35 24
3 35 30 24
3 30 36 31
3 36 37 31
3 31 37 32
3 37 38 32
3 32 38 33
3 38 39 33
3 33 39 34
3 39 40 34
3 34 40 35
3 40 41 35
3 35 41 30
3 41 36 30
3 36 42 37
3 42 43 37
3 37 43 38
3 43 44 38
3 38 44 39
3 44 45 39
3 39 45 40
3 45 46 40
3 40 46 41
3 46 47 41
3 41 47 36
3 47 42 36
3 42 48 43
3 48 49 43
3 43 49 44
3 49 50 44
3 44 50 45
3 50 51 45
3 45 51 46
3 51 52 46
3 46 52 47
3 52 53 47
3 47 53 42
3 53 48 42
3 48 54 49
3 54 55 49
3 49 55 50
3 55 56 50
3 50 56 51
3 56 57 51
3 51 57 52
3 57 58 52
3 52 58 53
3 58 59 53
3 53 59 48
3 59 54 48
3 54 60 55
3 60 61 55
3 55 61 56
3 61 62 56
3 56 62 57
3 62 63 57
3 57 63 58
3 63 64 58
3 58 64 59
3 64 65 59
3 59 65 54
3 65 60 54
3 60 66 61
3 66 67 61
3 61 67 62
3 67 68 62
3 62 68 63
3 68 69 63
3 63 69 64
3 69 70 64
3 64 70 65
3 70 71 65
3 65 71 60
3 71 66 60
3 66 72 67
3 72 73 67
3 67 73 68
3 73 74 68
3 68 74 69
3 74 75 69
3 69 75 70
3 75 76 70
3 70 76 71
3 76 77 71
3 71 77 66
3 77 72 66
3 72 78 73
3 78 79 73
3 73 79 74
3 79 80 74
3 74 80 75
3 80 81 75
3 75 81 76
3 81 82 76
3 76 82 77
3 82 83 77
3 77 83 72
3 83 78 72
3 78 84 79
3 84 85 79
3 79 85 80
3 85 86 80
3 80 86 81
3 86 87 81
3 81 87 82
3 87 88 82
3 82 88 83
3 88 89 83
3 83 89 78
3 89 84 78
3 84 90 85
3 90 91 85
3 85 91 86
3 91 92 86
3 86 92 87
3 92 93 87
3 87 93 88
3 93 94 88
3 88 94 89
3 94 95 89
3 89 95 84
3 95 90 84
3 90 96 91
3 96 97 91
3 91 97 92
3 97 98 92
3 92 98 93
3 98 99 93
3 93 99 94
3 99 100 94
3 94 100 95
3 100 101 95
3 95 101 90
3 101 96 90
3 96 102 97
3 102 103 97
3 97 103 98
3 103 104 98
3 98 104 99
3 104 105 99
3 99 105 100
3 105 106 100
3 100 106 101
3 106 107 101
3 101 107 96
3 107 102 96
3 102 108 103
3 108 109 103
3 103 109 104
3 109 110 104
3 104 110 105
3 110 111 105
3 105 111 106
3 111 112 106
3 106 112 107
3 112 113 107
3 107 113 102
3 113 108 102
3 108 114 109
3 114 115 109
3 109 115 110
3 115 116 110
3 110 116 111
3 116 117 111
3 111 117 112
3 117 118 112
3 112 118 113
3 118 119 113
3 113 119 108
3 119 114 108
3 120 0 1
3 121 115 114
3 120 1 2
3 121 116 115
3 120 2 3
3 121 117 116
3 120 3 4
3 121 118 117
3 120 4 5
3 121 119 118
3 120 5 0
3 121 114 119
