ply
format ascii 1.0
element vertex 623
property float x
property float y
property float z
element face 1242
property list uchar int vertex_indices
end_header
-480.692 -204.228 1068.55
-535.535 -171.568 1090.65
-539.578 -236.887 1073.92
-503.273 -181.982 981.221
-553.418 -149.78 1009.16
-558.574 -214.184 996.61
-522.619 -171.618 936.789
-575.516 -139.733 953.883
-573.221 -203.503 959.805
-542.793 -176.786 887.565
-593.236 -145.68 906.955
-591.577 -207.892 910.816
-561.71 -179.746 846.178
-609 -149.436 868.98
-608.815 -210.057 869.361
-581.722 -180.026 807.751
-626.541 -150.697 832.227
-623.815 -209.356 836.664
-607.301 -183.382 767.111
-644.477 -153.242 804.32
-639.662 -213.522 808.576
-640.361 -188.211 736.557
-677.893 -157.095 775.43
-675.012 -219.328 778.019
-669.419 -190.457 709.355
-714.242 -162.11 745.332
-690.127 -218.804 762.971
-695.898 -203.584 689.805
-730.672 -173.211 736.711
-707.533 -233.958 747.024
-728.188 -212.873 676.606
-747.775 -182.303 733.569
-719.172 -243.443 736.164
-761.362 -231.217 673
-776.385 -196.597 731.101
-774.067 -265.838 731.652
-786.249 -231.815 666.924
-796.415 -197.289 728.142
-779.844 -266.341 728.649
-808.029 -235.29 665.901
-809.775 -200.604 729.822
-788.105 -269.976 726.663
-827.282 -238.971 668.41
-819.97 -204.501 734.025
-793.273 -273.442 724.998
-838.889 -242.795 671.359
-822.164 -205.694 735.794
-806.054 -279.896 729.268
-865.039 -245.22 685.513
-823.365 -208.048 739.887
-807.493 -282.392 722.684
-879.574 -247.011 734.418
-808.784 -210.853 729.008
-819.113 -283.17 697.203
-867.274 -249.682 758.936
-819.524 -209.087 706.984
-815.323 -290.276 711.185
-848.786 -249.178 774.381
-819.983 -207.614 708.39
-818.741 -290.741 708.946
-831.232 -248.993 782.603
-809.143 -206.713 712.407
-816.167 -291.272 710.572
-810.618 -250.429 788.786
-794.508 -207.334 715.416
-802.834 -293.525 714.072
-785.877 -252.392 793.53
-777.186 -208.421 717.411
-785.496 -296.363 716.918
-754.6 -254.966 796.22
-755.22 -209.945 718.215
-757.316 -299.987 718.26
-721.539 -255.692 794.477
-728.31 -211.583 718.243
-723.755 -299.8 717.975
-692.418 -253.935 793.539
-683.425 -209.346 715.803
-696.041 -298.524 715.368
-644.794 -260.431 794.15
-648.46 -216.42 717.648
-641.033 -304.442 717.652
-616.09 -257.405 794.672
-601.457 -212.539 717.959
-609.14 -302.271 716.886
-597.445 -260.153 796.638
-551.522 -217.575 729.517
-583.261 -302.732 716.557
-552.821 -281.134 815.813
-503.214 -237.084 749.883
-531.448 -325.183 736.121
-512.731 -298.574 836.313
-461.451 -252.356 770.668
-481.39 -344.792 759.133
-480.942 -308.511 855.787
-431.182 -260.291 787.914
-439.899 -356.731 782.314
-454.52 -312.579 873.57
-393.943 -264.044 812.564
-407.986 -361.113 801.279
-427.068 -319.717 896.844
-366.78 -269.64 833.998
-372.651 -369.795 828.851
-408.626 -322.38 913.335
-334.908 -272.02 863.612
-345.909 -372.741 850.301
-395.652 -327.397 929.677
-310.964 -277.722 895.613
-326.906 -377.072 869.623
-385.176 -335.929 947.952
-294.913 -286.093 924.888
-309.821 -385.766 893.171
-378.179 -344.764 964.109
-284.197 -294.193 952.199
-295.47 -395.335 917.918
-374.561 -352.457 976.325
-277.475 -303.013 982.38
-285.603 -401.901 936.971
-372.806 -362.25 988.197
-276.007 -312.247 1008.63
-277.731 -412.252 960.84
-371.316 -371.865 990.762
-284.24 -326.217 1045.62
-268.813 -417.512 981.569
-377.839 -386.032 1014.32
-285.683 -340.015 1063.9
-274.639 -432.049 996.995
-374.174 -397.128 1008.18
-305.095 -356.057 1091.9
-266.251 -438.198 1019.71
-365.438 -411.596 1000.34
-333.352 -371.223 1106.23
-267.338 -451.969 1051.51
-363.143 -431.8 1001.11
-366.656 -394.601 1114.63
-280.273 -469 1078.77
-350.112 -439.786 997.681
-382.475 -398.033 1106.81
-295.086 -481.538 1097.32
-334.403 -450.553 999.782
-397.381 -401.246 1093.19
-326.397 -499.86 1112.15
-340.281 -463.153 998.016
-412.893 -409.704 1084.17
-354.023 -516.602 1109.85
-337.671 -472.826 1001.02
-425.824 -414.516 1070.41
-387.972 -531.136 1101.3
-344.5 -480.181 997.661
-427.731 -418.085 1066.72
-420.045 -542.276 1075.05
-357.888 -482.29 984.842
-441.075 -420.805 1051.34
-440.316 -543.775 1052.28
-373.442 -482.518 967.2
-448.79 -422.664 1040.96
-460.93 -542.373 1026.05
-391.366 -478.083 946.776
-464.027 -419.72 1021.59
-480.091 -536.446 1001.59
-407.833 -472.367 927.883
-476.874 -416.46 1005.21
-499.637 -528.274 976.032
-428.925 -463.884 903.053
-489.996 -408.223 984.535
-512.72 -519.545 960.91
-448.901 -456.355 881.026
-502.98 -401.093 969.872
-532.935 -511.617 942.316
-476.289 -445.46 855.122
-520.858 -389.088 950.615
-552.991 -501.831 927.387
-500.965 -435.701 836.15
-541.198 -378.628 935.266
-575.436 -492.774 912.941
-531.549 -427.205 816.378
-556.658 -368.276 921.354
-589.018 -486.134 907.744
-569.463 -419.802 801.287
-584.945 -357.539 908.224
-591.545 -482.066 907.059
-591.755 -418.514 796.344
-602.291 -356.147 905.826
-622.613 -480.881 901.914
-611.415 -415.011 791.547
-619.777 -352.526 903.143
-647.671 -477.495 897.42
-637.131 -411.193 785.877
-634.888 -347.116 898.855
-656.078 -475.271 897.277
-667.924 -408.101 783.574
-654.847 -342.358 896.865
-661.129 -473.843 897.415
-700.24 -407.238 786.775
-671.597 -340.62 898.707
-665.853 -473.855 897.078
-723.721 -407.999 792.745
-686.456 -340.659 903.78
-676.525 -475.338 899.936
-750.299 -409.338 802.862
-706.112 -342.901 914.023
-677.679 -475.774 897.917
-775.942 -413.013 817.811
-720.539 -349.967 928.063
-676.621 -476.06 891.026
-766.069 -419.455 813.204
-730.731 -350.324 930.059
-708.726 -488.586 920.98
-795.586 -421.396 827.38
-751.861 -362.337 948.922
-689.342 -480.454 900.841
-823.989 -428.516 854.188
-748.452 -381.705 967.192
-689.707 -475.327 875.264
-836.103 -439.941 941.228
-695.483 -403.127 947.447
-746.401 -476.756 832.756
-839.394 -458.534 926.398
-705.628 -422.79 976.439
-719.685 -494.278 848.506
-811.849 -475.007 989.757
-678.992 -433.994 936.325
-770.867 -516.021 852.548
-800.839 -494.792 1001.09
-670.745 -448.613 940.678
-761.191 -540.971 863.242
-799.059 -513.949 1002.77
-662.802 -462.501 957.84
-737.051 -565.396 873.391
-772.289 -534.273 1031.15
-649.266 -481.309 954.841
-740.516 -587.238 889.913
-721.41 -549.362 1056.06
-662.683 -482.823 927.904
-743.093 -615.902 916.766
-699.536 -558.906 1059.86
-651.664 -490.424 926.213
-729.495 -627.388 921.095
-745.489 -568.833 1030.69
-617.987 -497.644 966.913
-665.036 -640.022 912.997
-651.952 -587.119 1090.61
-631.708 -509.281 951.049
-673.084 -664.957 951.181
-664.171 -593.15 1084.94
-599.672 -512.876 958.827
-624.834 -673.424 948.862
-526.746 -597.242 1053.49
-654.628 -518.086 995.807
-639.592 -676.397 970.143
-676.037 -591.341 1019.68
-553.069 -510.59 949.919
-544.23 -672.092 968.548
-611.179 -571.456 1158.63
-498.507 -501.523 1061.22
-463.349 -641.388 1140.44
-467.612 -556.128 1224.28
-516.332 -478.52 1089.71
-558.993 -633.735 1114.13
-426.151 -560.006 1187.98
-520.19 -490.279 1077.34
-564.71 -629.734 1144.55
-488.326 -567.711 1217.16
-520.187 -490.572 1081.42
-480.457 -644.85 1077.95
-460.288 -565.559 1211.45
-504.62 -486.803 1082.32
-499.182 -644.316 1080.58
-443.222 -565.293 1204.22
-527.387 -493.451 1094.42
-472.533 -637.136 1069.01
-486.307 -562.675 1208.26
-503.936 -493.625 1071.57
-435.957 -631.725 1079.97
-435.537 -558.865 1202.76
-490.49 -482.985 1082.53
-477.3 -634.745 1077.34
-369.594 -557.675 1126.98
-499.694 -482.489 1115.67
-498.487 -632.861 1105.99
-370.187 -556.834 1121.17
-495.416 -482.503 1089.85
-497.355 -631.165 1099
-367.566 -559.883 1092.55
-491.471 -489.19 1056.15
-473.79 -630.577 1019.11
-502.475 -550.569 979.983
-408.174 -480.454 1071.52
-380.718 -620.684 1029.45
-484.854 -555.976 1111
-461.817 -507.051 974.071
-369.441 -604.901 1033.8
-514.616 -554.004 1003.06
-405.639 -481.326 1073.98
-391.438 -626.682 1044.69
-369.436 -555.341 1093.58
-495.836 -491.773 1052.87
-454.234 -618.909 991.388
-517.756 -553.023 1073.85
-405.59 -481.93 1006.38
-389.487 -624.116 1047.75
-485.051 -551.51 975.423
-437.161 -483.026 1100.82
-385.348 -619.994 1065.29
-480.14 -556.36 972.664
-454.479 -486.418 1105.64
-399.105 -626.301 1081.17
-451.447 -558.762 1142.38
-480.888 -490.617 1011.25
-416.621 -626.907 1012.57
-473.141 -554.494 973.823
-454.153 -485.37 1108.34
-394.515 -623.617 1084.6
-542.084 -561.504 1044.64
-416.924 -491.564 1101.26
-404.89 -631.444 1037.61
-496.409 -562.406 983.178
-462.788 -491.381 1117.81
-405.786 -633.43 1088.26
-537.849 -568.881 1011.69
-457.449 -500.356 1128.67
-407.846 -637.407 1068.67
-558.094 -571.347 1101.09
-419.06 -495.682 1082.75
-434.287 -647.012 1035.22
-562.415 -572.463 1078.74
-422.329 -495.479 1098.65
-423.601 -649.446 1051.33
-450.786 -573.827 1170.79
-506.409 -499.382 1041.34
-450.793 -648.271 1029.9
-450.787 -571.955 1169.65
-508.098 -502.444 1040.31
-434.677 -641.465 1029.11
-453.991 -566.117 1168.04
-501.838 -504.908 1032.89
-405.332 -627.327 1033.18
-367.967 -559.587 1121.88
-506.374 -497.086 1095.42
-461.966 -622.088 1016.9
-489.071 -553.014 1143.81
-461.965 -499.071 1003.86
-371.819 -606.957 1062.73
-349.387 -545.127 1093.24
-490.668 -505.688 1127.75
-462.951 -584.565 1002.38
-481.848 -533.129 1137.86
-464.694 -504.664 992.663
-351.69 -561.595 1071.26
-401.715 -525.088 1149.31
-491.668 -471.416 1045.86
-396.657 -578.76 1012.31
-377.349 -509.6 1139.03
-489.856 -473.867 1053.98
-376.161 -545.333 997.996
-491.27 -495.292 1047.46
-356.63 -449.361 1009.54
-373.749 -541.224 1123.31
-347.102 -487.693 1123.83
-482.996 -454.16 1084.13
-394.26 -521.226 990.344
-402.461 -468.391 1141.81
-463.947 -434.411 1016.38
-337.278 -502.371 1018.27
-339.093 -454.138 1120.21
-468.587 -423.178 1070.76
-373.071 -485.099 985.827
-366.688 -431.399 1130.43
-454.716 -398.01 1026.42
-334.652 -464.788 997.989
-335.754 -407.026 1119.63
-446.828 -378.143 1041.99
-334.964 -435.908 984.11
-324.154 -381.281 1112.48
-438.81 -362.945 1040.08
-323.122 -399.618 976.884
-310.638 -361.366 1103.1
-431.905 -340.157 1047.45
-328.957 -382.575 970.934
-283.447 -337.402 1073.07
-415.614 -319.546 1073.32
-353.358 -355.259 960.908
-272.592 -314.086 1041.92
-395.271 -302.15 1088.13
-375.137 -326.022 960.248
-271.967 -287.851 1028.14
-386.729 -268.906 1085.99
-382.046 -306.796 961.821
-273.109 -256.697 1024.85
-390.816 -239.71 1072.64
-375.743 -273.684 949.979
-275.514 -218.993 984.089
-361.733 -211.639 1076.28
-398.629 -226.348 956.242
-300.177 -190.566 944.463
-321.829 -170.018 1069.11
-416.805 -211.114 993.49
-325.281 -164.439 927.231
-311.679 -138.981 1053.89
-422.607 -189.897 1009.42
-328.624 -144.453 924.962
-329.277 -105.624 1050.74
-425.377 -183.282 1005.33
-341.753 -125.562 917.663
-342.317 -83.5603 1044.24
-436.647 -167.563 1001.44
-352.818 -106.144 911.614
-369.088 -52.2505 1034.43
-441.827 -160.038 997.781
-374.654 -90.1071 899.59
-387.164 -34.0447 1023.78
-458.777 -146.169 991.803
-395.277 -75.7363 889.328
-417.534 -11.1782 1009.9
-464.064 -140.294 990.819
-407.376 -68.2603 883.511
-453.009 1.26099 996.504
-469.77 -137.782 988.185
-421.679 -65.404 875.455
-486.16 5.50166 980.272
-479.35 -136.31 984.167
-443.598 -66.6542 861.834
-502.983 5.19836 971.277
-499.458 -138.507 973.117
-459.124 -67.1324 852.604
-525.302 4.92938 960.286
-507.572 -139.194 969.342
-489.844 -68.5502 839.385
-517.549 5.00808 963.87
-512.025 -142.108 964.972
-591.136 -68.8245 884.348
-478.513 5.11889 947.88
-470.848 -142.768 931.794
-599.928 -69.7166 902.737
-476.208 5.52446 944.44
-473.916 -144.958 936.896
-606.421 -70.2496 923.156
-473.285 3.83463 927.433
-479.217 -144.334 962.688
-605.523 -66.1123 922.637
-473.915 8.43062 952.399
-488.022 -140.655 988.969
-615.022 -63.4793 950.186
-479.201 12.849 955.332
-484.049 -139.808 986.517
-617.558 -61.4673 959.988
-478.424 12.254 952.908
-486.775 -135.189 1007.99
-614.01 -57.9126 947.763
-472.33 12.6273 966.284
-500.648 -128.452 1034.74
-624.946 -53.4867 983.618
-483.422 20.4877 962.509
-488.285 -127.461 1026.03
-620.988 -49.8044 966.514
-483.518 30.1699 1001.36
-494.105 -129.779 1029.86
-631.235 -47.8946 1003.62
-487.76 31.3378 989.056
-490.111 -127.127 1033.31
-631.029 -45.4547 998.86
-483.229 30.5372 993.543
-496.237 -121.447 1059.72
-634.366 -41.5656 1011.05
-487.783 40.4211 1015.35
-493.416 -123.552 1051.52
-635.056 -39.5901 1011.35
-486.326 41.5024 1022.09
-498.268 -120.683 1070.72
-640.892 -36.8701 1039
-491.329 44.2244 1017.61
-493.731 -117.965 1073.21
-642.697 -31.1773 1060.68
-492.849 53.6138 1041.81
-492.555 -115.968 1077.05
-643.546 -29.2746 1072.97
-493.656 49.4823 1029
-490.669 -108.031 1105.05
-638.237 -25.6124 1111.29
-510.704 48.5466 1014.09
-478.037 -99.7713 1104.35
-638.266 -20.7031 1113.75
-498.031 64.6616 1043.94
-482.936 -106.068 1093.44
-637.09 -15.0161 1117.29
-487.309 70.0631 1064.62
-478.419 -100.095 1123.05
-629.843 -11.9092 1150.9
-495.879 74.0546 1062.93
-473.062 -97.8731 1117.66
-627.885 -8.00842 1158
-485.403 81.8985 1085.04
-472.438 -97.9153 1119.78
-628.485 -5.9592 1157.83
-482.097 80.3592 1083.89
-464.722 -92.2776 1149.02
-623.547 -2.3219 1177.9
-488.237 79.8909 1078.28
-456.316 -84.5347 1161.57
-624.73 2.76877 1175.84
-473.001 93.8249 1110.03
-460.293 -88.2873 1158.16
-625.407 5.73648 1174.46
-466.001 97.2282 1124.27
-458.303 -85.7552 1176.79
-619.956 8.84314 1205.28
-471.385 101.068 1125.38
-453.709 -83.3818 1176.65
-622.667 12.4608 1189.45
-457.386 105.201 1148.06
-452.967 -80.2798 1204.71
-623.11 15.7027 1195.36
-454.948 107.43 1155.17
-452.492 -76.0251 1223.33
-621.69 19.9267 1224.34
-459.095 114.679 1164.57
-448.538 -74.8252 1219.02
-621.377 23.3721 1230.46
-455.676 116.308 1170.62
-445.548 -69.5638 1241.51
-621.909 27.2188 1217.07
-446.486 123.457 1198.83
-449.969 -69.0195 1256.35
-619.551 30.3965 1265.79
-458.524 126.968 1189.56
-442.213 -66.175 1248.69
-621.94 33.7672 1244.73
-444.915 134.429 1227.38
-444.967 -66.8944 1262.61
-622.357 35.3989 1242.33
-441.033 131.517 1223.2
-448.473 -60.7191 1297.18
-624.782 39.9579 1275.14
-448.079 137.377 1225.29
-442.541 -57.4615 1297.45
-625.216 43.5014 1268.74
-442.397 144.266 1250.12
-445.599 -57.2631 1307.56
-626.489 46.6331 1275.12
-440.438 143.829 1250.84
-448.117 -50.5629 1333.33
-622.665 51.407 1258.46
-439.398 154.644 1292.26
-456.095 -51.83 1342.03
-629.88 54.1583 1278.12
-444.989 160.027 1305.23
-453.616 -51.7104 1340.17
-630.285 56.2801 1278.14
-439.18 155.597 1300.28
-467.997 -43.0367 1381.46
-628.842 60.8351 1273.8
-443.817 164.042 1326.16
-475.345 -42.3722 1389.62
-642.304 65.0124 1301.83
-451.367 170.439 1330.39
-470.576 -40.4137 1390.05
-640.426 67.7852 1295.85
-455.405 175.619 1353.22
-476.992 -40.049 1399.84
-653.19 70.9045 1323.97
-463.527 181.526 1365.36
-472.614 -39.7172 1395.23
-642.043 72.3679 1300.98
-456.002 177.258 1372.3
-500.343 -32.5222 1441.05
-670.077 81.7245 1350.17
-472.129 189.152 1377.72
-495.198 -25.7027 1446.92
-654.55 85.3698 1322.26
-471.192 191.674 1408
-521.849 -20.9347 1475.11
-668.492 90.545 1339.6
-476.079 196.004 1409.76
-526.672 -14.9135 1487.35
-681.494 97.3843 1358.04
-506.994 213.425 1457.8
-508.271 -18.6561 1460
-678.957 97.506 1353.61
-491.444 206.274 1441.27
-543.063 -11.2615 1509.75
-687.284 104.544 1363.17
-492.005 206.562 1446.51
-566.415 2.52491 1537.72
-702.684 116.4 1380.5
-508.44 222.675 1465.84
-573.553 10.125 1548.84
-713.499 128.407 1393.01
-524.698 236.755 1491.74
-591.273 20.0597 1567.52
-737.725 141.078 1419.48
-549.878 255.468 1517.42
-595.76 26.6868 1576.72
-736.45 148.174 1419.21
-567.822 264.299 1549.14
-618.837 32.0485 1596.65
-766.526 155.157 1447.43
-579.873 271.368 1553.73
-627.788 38.9465 1611.41
-749.161 164.936 1438.29
-618.175 284.889 1608.42
-664.948 44.9829 1635.8
-787.729 170.88 1461.1
-634.43 291.58 1613.67
-678.25 50.1802 1647.62
-818.063 179.683 1483.34
-675.026 303.531 1645.85
-698.218 55.8343 1663.64
-862.975 184.068 1518.21
-740.319 301.163 1703.47
-676.493 66.9738 1639
-863.32 177.418 1518.5
-755.132 298.358 1712.46
-697.57 56.478 1666.32
-911.539 171.639 1566.51
-759.075 280.791 1738.76
-689.758 62.4876 1627.56
-857.12 160.537 1524.92
-839.027 260.916 1760.1
-693.577 60.1579 1694.89
-862.889 155.873 1526.41
-844.674 256.931 1763.18
-698.241 54.8159 1697.53
-518.601 -204.228 1077.7
-801.935 155.873 1662.37
3 0 3 1
3 3 4 1
3 1 4 2
3 4 5 2
3 2 5 0
3 5 3 0
3 3 6 4
3 6 7 4
3 4 7 5
3 7 8 5
3 5 8 3
3 8 6 3
3 6 9 7
3 9 10 7
3 7 10 8
3 10 11 8
3 8 11 6
3 11 9 6
3 9 12 10
3 12 13 10
3 10 13 11
3 13 14 11
3 11 14 9
3 14 12 9
3 12 15 13
3 15 16 13
3 13 16 14
3 16 17 14
3 14 17 12
3 17 15 12
3 15 18 16
3 18 19 16
3 16 19 17
3 19 20 17
3 17 20 15
3 20 18 15
3 18 21 19
3 21 22 19
3 19 22 20
3 22 23 20
3 20 23 18
3 23 21 18
3 21 24 22
3 24 25 22
3 22 25 23
3 25 26 23
3 23 26 21
3 26 24 21
3 24 27 25
3 27 28 25
3 25 28 26
3 28 29 26
3 26 29 24
3 29 27 24
3 27 30 28
3 30 31 28
3 28 31 29
3 31 32 29
3 29 32 27
3 32 30 27
3 30 33 31
3 33 34 31
3 31 34 32
3 34 35 32
3 32 35 30
3 35 33 30
3 33 36 34
3 36 37 34
3 34 37 35
3 37 38 35
3 35 38 33
3 38 36 33
3 36 39 37
3 39 40 37
3 37 40 38
3 40 41 38
3 38 41 36
3 41 39 36
3 39 42 40
3 42 43 40
3 40 43 41
3 43 44 41
3 41 44 39
3 44 42 39
3 42 45 43
3 45 46 43
3 43 46 44
3 46 47 44
3 44 47 42
3 47 45 42
3 45 48 46
3 48 49 46
3 46 49 47
3 49 50 47
3 47 50 45
3 50 48 45
3 48 51 49
3 51 52 49
3 49 52 50
3 52 53 50
3 50 53 48
3 53 51 48
3 51 54 52
3 54 55 52
3 52 55 53
3 55 56 53
3 53 56 51
3 56 54 51
3 54 57 55
3 57 58 55
3 55 58 56
3 58 59 56
3 56 59 54
3 59 57 54
3 57 60 58
3 60 61 58
3 58 61 59
3 61 62 59
3 59 62 57
3 62 60 57
3 60 63 61
3 63 64 61
3 61 64 62
3 64 65 62
3 62 65 60
3 65 63 60
3 63 66 64
3 66 67 64
3 64 67 65
3 67 68 65
3 65 68 63
3 68 66 63
3 66 69 67
3 69 70 67
3 67 70 68
3 70 71 68
3 68 71 66
3 71 69 66
3 69 72 70
3 72 73 70
3 70 73 71
3 73 74 71
3 71 74 69
3 74 72 69
3 72 75 73
3 75 76 73
3 73 76 74
3 76 77 74
3 74 77 72
3 77 75 72
3 75 78 76
3 78 79 76
3 76 79 77
3 79 80 77
3 77 80 75
3 80 78 75
3 78 81 79
3 81 82 79
3 79 82 80
3 82 83 80
3 80 83 78
3 83 81 78
3 81 84 82
3 84 85 82
3 82 85 83
3 85 86 83
3 83 86 81
3 86 84 81
3 84 87 85
3 87 88 85
3 85 88 86
3 88 89 86
3 86 89 84
3 89 87 84
3 87 90 88
3 90 91 88
3 88 91 89
3 91 92 89
3 89 92 87
3 92 90 87
3 90 93 91
3 93 94 91
3 91 94 92
3 94 95 92
3 92 95 90
3 95 93 90
3 93 96 94
3 96 97 94
3 94 97 95
3 97 98 95
3 95 98 93
3 98 96 93
3 96 99 97
3 99 100 97
3 97 100 98
3 100 101 98
3 98 101 96
3 101 99 96
3 99 102 100
3 102 103 100
3 100 103 101
3 103 104 101
3 101 104 99
3 104 102 99
3 102 105 103
3 105 106 103
3 103 106 104
3 106 107 104
3 104 107 102
3 107 105 102
3 105 108 106
3 108 109 106
3 106 109 107
3 109 110 107
3 107 110 105
3 110 108 105
3 108 111 109
3 111 112 109
3 109 112 110
3 112 113 110
3 110 113 108
3 113 111 108
3 111 114 112
3 114 115 112
3 112 115 113
3 115 116 113
3 113 116 111
3 116 114 111
3 114 117 115
3 117 118 115
3 115 118 116
3 118 119 116
3 116 119 114
3 119 117 114
3 117 120 118
3 120 121 118
3 118 121 119
3 121 122 119
3 119 122 117
3 122 120 117
3 120 123 121
3 123 124 121
3 121 124 122
3 124 125 122
3 122 125 120
3 125 123 120
3 123 126 124
3 126 127 124
3 124 127 125
3 127 128 125
3 125 128 123
3 128 126 123
3 126 129 127
3 129 130 127
3 127 130 128
3 130 131 128
3 128 131 126
3 131 129 126
3 129 132 130
3 132 133 130
3 130 133 131
3 133 134 131
3 131 134 129
3 134 132 129
3 132 135 133
3 135 136 133
3 133 136 134
3 136 137 134
3 134 137 132
3 137 135 132
3 135 138 136
3 138 139 136
3 136 139 137
3 139 140 137
3 137 140 135
3 140 138 135
3 138 141 139
3 141 142 139
3 139 142 140
3 142 143 140
3 140 143 138
3 143 141 138
3 141 144 142
3 144 145 142
3 142 145 143
3 145 146 143
3 143 146 141
3 146 144 141
3 144 147 145
3 147 148 145
3 145 148 146
3 148 149 146
3 146 149 144
3 149 147 144
3 147 150 148
3 150 151 148
3 148 151 149
3 151 152 149
3 149 152 147
3 152 150 147
3 150 153 151
3 153 154 151
3 151 154 152
3 154 155 152
3 152 155 150
3 155 153 150
3 153 156 154
3 156 157 154
3 154 157 155
3 157 158 155
3 155 158 153
3 158 156 153
3 156 159 157
3 159 160 157
3 157 160 158
3 160 161 158
3 158 161 156
3 161 159 156
3 159 162 160
3 162 163 160
3 160 163 161
3 163 164 161
3 161 164 159
3 164 162 159
3 162 165 163
3 165 166 163
3 163 166 164
3 166 167 164
3 164 167 162
3 167 165 162
3 165 168 166
3 168 169 166
3 166 169 167
3 169 170 167
3 167 170 165
3 170 168 165
3 168 171 169
3 171 172 169
3 169 172 170
3 172 173 170
3 170 173 168
3 173 171 168
3 171 174 172
3 174 175 172
3 172 175 173
3 175 176 173
3 173 176 171
3 176 174 171
3 174 177 175
3 177 178 175
3 175 178 176
3 178 179 176
3 176 179 174
3 179 177 174
3 177 180 178
3 180 181 178
3 178 181 179
3 181 182 179
3 179 182 177
3 182 180 177
3 180 183 181
3 183 184 181
3 181 184 182
3 184 185 182
3 182 185 180
3 185 183 180
3 183 186 184
3 186 187 184
3 184 187 185
3 187 188 185
3 185 188 183
3 188 186 183
3 186 189 187
3 189 190 187
3 187 190 188
3 190 191 188
3 188 191 186
3 191 189 186
3 189 192 190
3 192 193 190
3 190 193 191
3 193 194 191
3 191 194 189
3 194 192 189
3 192 195 193
3 195 196 193
3 193 196 194
3 196 197 194
3 194 197 192
3 197 195 192
3 195 198 196
3 198 199 196
3 196 199 197
3 199 200 197
3 197 200 195
3 200 198 195
3 198 201 199
3 201 202 199
3 199 202 200
3 202 203 200
3 200 203 198
3 203 201 198
3 201 204 202
3 204 205 202
3 202 205 203
3 205 206 203
3 203 206 201
3 206 204 201
3 204 207 205
3 207 208 205
3 205 208 206
3 208 209 206
3 206 209 204
3 209 207 204
3 207 210 208
3 210 211 208
3 208 211 209
3 211 212 209
3 209 212 207
3 212 210 207
3 210 213 211
3 213 214 211
3 211 214 212
3 214 215 212
3 212 215 210
3 215 213 210
3 213 216 214
3 216 217 214
3 214 217 215
3 217 218 215
3 215 218 213
3 218 216 213
3 216 219 217
3 219 220 217
3 217 220 218
3 220 221 218
3 218 221 216
3 221 219 216
3 219 222 220
3 222 223 220
3 220 223 221
3 223 224 221
3 221 224 219
3 224 222 219
3 222 225 223
3 225 226 223
3 223 226 224
3 226 227 224
3 224 227 222
3 227 225 222
3 225 228 226
3 228 229 226
3 226 229 227
3 229 230 227
3 227 230 225
3 230 228 225
3 228 231 229
3 231 232 229
3 229 232 230
3 232 233 230
3 230 233 228
3 233 231 228
3 231 234 232
3 234 235 232
3 232 235 233
3 235 236 233
3 233 236 231
3 236 234 231
3 234 237 235
3 237 238 235
3 235 238 236
3 238 239 236
3 236 239 234
3 239 237 234
3 237 240 238
3 240 241 238
3 238 241 239
3 241 242 239
3 239 242 237
3 242 240 237
3 240 243 241
3 243 244 241
3 241 244 242
3 244 245 242
3 242 245 240
3 245 243 240
3 243 246 244
3 246 247 244
3 244 247 245
3 247 248 245
3 245 248 243
3 248 246 243
3 246 249 247
3 249 250 247
3 247 250 248
3 250 251 248
3 248 251 246
3 251 249 246
3 249 252 250
3 252 253 250
3 250 253 251
3 253 254 251
3 251 254 249
3 254 252 249
3 252 255 253
3 255 256 253
3 253 256 254
3 256 257 254
3 254 257 252
3 257 255 252
3 255 258 256
3 258 259 256
3 256 259 257
3 259 260 257
3 257 260 255
3 260 258 255
3 258 261 259
3 261 262 259
3 259 262 260
3 262 263 260
3 260 263 258
3 263 261 258
3 261 264 262
3 264 265 262
3 262 265 263
3 265 266 263
3 263 266 261
3 266 264 261
3 264 267 265
3 267 268 265
3 265 268 266
3 268 269 266
3 266 269 264
3 269 267 264
3 267 270 268
3 270 271 268
3 268 271 269
3 271 272 269
3 269 272 267
3 272 270 267
3 270 273 271
3 273 274 271
3 271 274 272
3 274 275 272
3 272 275 270
3 275 273 270
3 273 276 274
3 276 277 274
3 274 277 275
3 277 278 275
3 275 278 273
3 278 276 273
3 276 279 277
3 279 280 277
3 277 280 278
3 280 281 278
3 278 281 276
3 281 279 276
3 279 282 280
3 282 283 280
3 280 283 281
3 283 284 281
3 281 284 279
3 284 282 279
3 282 285 283
3 285 286 283
3 283 286 284
3 286 287 284
3 284 287 282
3 287 285 282
3 285 288 286
3 288 289 286
3 286 289 287
3 289 290 287
3 287 290 285
3 290 288 285
3 288 291 289
3 291 292 289
3 289 292 290
3 292 293 290
3 290 293 288
3 293 291 288
3 291 294 292
3 294 295 292
3 292 295 293
3 295 296 293
3 293 296 291
3 296 294 291
3 294 297 295
3 297 298 295
3 295 298 296
3 298 299 296
3 296 299 294
3 299 297 294
3 297 300 298
3 300 301 298
3 298 301 299
3 301 302 299
3 299 302 297
3 302 300 297
3 300 303 301
3 303 304 301
3 301 304 302
3 304 305 302
3 302 305 300
3 305 303 300
3 303 306 304
3 306 307 304
3 304 307 305
3 307 308 305
3 305 308 303
3 308 306 303
3 306 309 307
3 309 310 307
3 307 310 308
3 310 311 308
3 308 311 306
3 311 309 306
3 309 312 310
3 312 313 310
3 310 313 311
3 313 314 311
3 311 314 309
3 314 312 309
3 312 315 313
3 315 316 313
3 313 316 314
3 316 317 314
3 314 317 312
3 317 315 312
3 315 318 316
3 318 319 316
3 316 319 317
3 319 320 317
3 317 320 315
3 320 318 315
3 318 321 319
3 321 322 319
3 319 322 320
3 322 323 320
3 320 323 318
3 323 321 318
3 321 324 322
3 324 325 322
3 322 325 323
3 325 326 323
3 323 326 321
3 326 324 321
3 324 327 325
3 327 328 325
3 325 328 326
3 328 329 326
3 326 329 324
3 329 327 324
3 327 330 328
3 330 331 328
3 328 331 329
3 331 332 329
3 329 332 327
3 332 330 327
3 330 333 331
3 333 334 331
3 331 334 332
3 334 335 332
3 332 335 330
3 335 333 330
3 333 336 334
3 336 337 334
3 334 337 335
3 337 338 335
3 335 338 333
3 338 336 333
3 336 339 337
3 339 340 337
3 337 340 338
3 340 341 338
3 338 341 336
3 341 339 336
3 339 342 340
3 342 343 340
3 340 343 341
3 343 344 341
3 341 344 339
3 344 342 339
3 342 345 343
3 345 346 343
3 343 346 344
3 346 347 344
3 344 347 342
3 347 345 342
3 345 348 346
3 348 349 346
3 346 349 347
3 349 350 347
3 347 350 345
3 350 348 345
3 348 351 349
3 351 352 349
3 349 352 350
3 352 353 350
3 350 353 348
3 353 351 348
3 351 354 352
3 354 355 352
3 352 355 353
3 355 356 353
3 353 356 351
3 356 354 351
3 354 357 355
3 357 358 355
3 355 358 356
3 358 359 356
3 356 359 354
3 359 357 354
3 357 360 358
3 360 361 358
3 358 361 359
3 361 362 359
3 359 362 357
3 362 360 357
3 360 363 361
3 363 364 361
3 361 364 362
3 364 365 362
3 362 365 360
3 365 363 360
3 363 366 364
3 366 367 364
3 364 367 365
3 367 368 365
3 365 368 363
3 368 366 363
3 366 369 367
3 369 370 367
3 367 370 368
3 370 371 368
3 368 371 366
3 371 369 366
3 369 372 370
3 372 373 370
3 370 373 371
3 373 374 371
3 371 374 369
3 374 372 369
3 372 375 373
3 375 376 373
3 373 376 374
3 376 377 374
3 374 377 372
3 377 375 372
3 375 378 376
3 378 379 376
3 376 379 377
3 379 380 377
3 377 380 375
3 380 378 375
3 378 381 379
3 381 382 379
3 379 382 380
3 382 383 380
3 380 383 378
3 383 381 378
3 381 384 382
3 384 385 382
3 382 385 383
3 385 386 383
3 383 386 381
3 386 384 381
3 384 387 385
3 387 388 385
3 385 388 386
3 388 389 386
3 386 389 384
3 389 387 384
3 387 390 388
3 390 391 388
3 388 391 389
3 391 392 389
3 389 392 387
3 392 390 387
3 390 393 391
3 393 394 391
3 391 394 392
3 394 395 392
3 392 395 390
3 395 393 390
3 393 396 394
3 396 397 394
3 394 397 395
3 397 398 395
3 395 398 393
3 398 396 393
3 396 399 397
3 399 400 397
3 397 400 398
3 400 401 398
3 398 401 396
3 401 399 396
3 399 402 400
3 402 403 400
3 400 403 401
3 403 404 401
3 401 404 399
3 404 402 399
3 402 405 403
3 405 406 403
3 403 406 404
3 406 407 404
3 404 407 402
3 407 405 402
3 405 408 406
3 408 409 406
3 406 409 407
3 409 410 407
3 407 410 405
3 410 408 405
3 408 411 409
3 411 412 409
3 409 412 410
3 412 413 410
3 410 413 408
3 413 411 408
3 411 414 412
3 414 415 412
3 412 415 413
3 415 416 413
3 413 416 411
3 416 414 411
3 414 417 415
3 417 418 415
3 415 418 416
3 418 419 416
3 416 419 414
3 419 417 414
3 417 420 418
3 420 421 418
3 418 421 419
3 421 422 419
3 419 422 417
3 422 420 417
3 420 423 421
3 423 424 421
3 421 424 422
3 424 425 422
3 422 425 420
3 425 423 420
3 423 426 424
3 426 427 424
3 424 427 425
3 427 428 425
3 425 428 423
3 428 426 423
3 426 429 427
3 429 430 427
3 427 430 428
3 430 431 428
3 428 431 426
3 431 429 426
3 429 432 430
3 432 433 430
3 430 433 431
3 433 434 431
3 431 434 429
3 434 432 429
3 432 435 433
3 435 436 433
3 433 436 434
3 436 437 434
3 434 437 432
3 437 435 432
3 435 438 436
3 438 439 436
3 436 439 437
3 439 440 437
3 437 440 435
3 440 438 435
3 438 441 439
3 441 442 439
3 439 442 440
3 442 443 440
3 440 443 438
3 443 441 438
3 441 444 442
3 444 445 442
3 442 445 443
3 445 446 443
3 443 446 441
3 446 444 441
3 444 447 445
3 447 448 445
3 445 448 446
3 448 449 446
3 446 449 444
3 449 447 444
3 447 450 448
3 450 451 448
3 448 451 449
3 451 452 449
3 449 452 447
3 452 450 447
3 450 453 451
3 453 454 451
3 451 454 452
3 454 455 452
3 452 455 450
3 455 453 450
3 453 456 454
3 456 457 454
3 454 457 455
3 457 458 455
3 455 458 453
3 458 456 453
3 456 459 457
3 459 460 457
3 457 460 458
3 460 461 458
3 458 461 456
3 461 459 456
3 459 462 460
3 462 463 460
3 460 463 461
3 463 464 461
3 461 464 459
3 464 462 459
3 462 465 463
3 465 466 463
3 463 466 464
3 466 467 464
3 464 467 462
3 467 465 462
3 465 468 466
3 468 469 466
3 466 469 467
3 469 470 467
3 467 470 465
3 470 468 465
3 468 471 469
3 471 472 469
3 469 472 470
3 472 473 470
3 470 473 468
3 473 471 468
3 471 474 472
3 474 475 472
3 472 475 473
3 475 476 473
3 473 476 471
3 476 474 471
3 474 477 475
3 477 478 475
3 475 478 476
3 478 479 476
3 476 479 474
3 479 477 474
3 477 480 478
3 480 481 478
3 478 481 479
3 481 482 479
3 479 482 477
3 482 480 477
3 480 483 481
3 483 484 481
3 481 484 482
3 484 485 482
3 482 485 480
3 485 483 480
3 483 486 484
3 486 487 484
3 484 487 485
3 487 488 485
3 485 488 483
3 488 486 483
3 486 489 487
3 489 490 487
3 487 490 488
3 490 491 488
3 488 491 486
3 491 489 486
3 489 492 490
3 492 493 490
3 490 493 491
3 493 494 491
3 491 494 489
3 494 492 489
3 492 495 493
3 495 496 493
3 493 496 494
3 496 497 494
3 494 497 492
3 497 495 492
3 495 498 496
3 498 499 496
3 496 499 497
3 499 500 497
3 497 500 495
3 500 498 495
3 498 501 499
3 501 502 499
3 499 502 500
3 502 503 500
3 500 503 498
3 503 501 498
3 501 504 502
3 504 505 502
3 502 505 503
3 505 506 503
3 503 506 501
3 506 504 501
3 504 507 505
3 507 508 505
3 505 508 506
3 508 509 506
3 506 509 504
3 509 507 504
3 507 510 508
3 510 511 508
3 508 511 509
3 511 512 509
3 509 512 507
3 512 510 507
3 510 513 511
3 513 514 511
3 511 514 512
3 514 515 512
3 512 515 510
3 515 513 510
3 513 516 514
3 516 517 514
3 514 517 515
3 517 518 515
3 515 518 513
3 518 516 513
3 516 519 517
3 519 520 517
3 517 520 518
3 520 521 518
3 518 521 516
3 521 519 516
3 519 522 520
3 522 523 520
3 520 523 521
3 523 524 521
3 521 524 519
3 524 522 519
3 522 525 523
3 525 526 523
3 523 526 524
3 526 527 524
3 524 527 522
3 527 525 522
3 525 528 526
3 528 529 526
3 526 529 527
3 529 530 527
3 527 530 525
3 530 528 525
3 528 531 529
3 531 532 529
3 529 532 530
3 532 533 530
3 530 533 528
3 533 531 528
3 531 534 532
3 534 535 532
3 532 535 533
3 535 536 533
3 533 536 531
3 536 534 531
3 534 537 535
3 537 538 535
3 535 538 536
3 538 539 536
3 536 539 534
3 539 537 534
3 537 540 538
3 540 541 538
3 538 541 539
3 541 542 539
3 539 542 537
3 542 540 537
3 540 543 541
3 543 544 541
3 541 544 542
3 544 545 542
3 542 545 540
3 545 543 540
3 543 546 544
3 546 547 544
3 544 547 545
3 547 548 545
3 545 548 543
3 548 546 543
3 546 549 547
3 549 550 547
3 547 550 548
3 550 551 548
3 548 551 546
3 551 549 546
3 549 552 550
3 552 553 550
3 550 553 551
3 553 554 551
3 551 554 549
3 554 552 549
3 552 555 553
3 555 556 553
3 553 556 554
3 556 557 554
3 554 557 552
3 557 555 552
3 555 558 556
3 558 559 556
3 556 559 557
3 559 560 557
3 557 560 555
3 560 558 555
3 558 561 559
3 561 562 559
3 559 562 560
3 562 563 560
3 560 563 558
3 563 561 558
3 561 564 562
3 564 565 562
3 562 565 563
3 565 566 563
3 563 566 561
3 566 564 561
3 564 567 565
3 567 568 565
3 565 568 566
3 568 569 566
3 566 569 564
3 569 567 564
3 567 570 568
3 570 571 568
3 568 571 569
3 571 572 569
3 569 572 567
3 572 570 567
3 570 573 571
3 573 574 571
3 571 574 572
3 574 575 572
3 572 575 570
3 575 573 570
3 573 576 574
3 576 577 574
3 574 577 575
3 577 578 575
3 575 578 573
3 578 576 573
3 576 579 577
3 579 580 577
3 577 580 578
3 580 581 578
3 578 581 576
3 581 579 576
3 579 582 580
3 582 583 580
3 580 583 581
3 583 584 581
3 581 584 579
3 584 582 579
3 582 585 583
3 585 586 583
3 583 586 584
3 586 587 584
3 584 587 582
3 587 585 582
3 585 588 586
3 588 589 586
3 586 589 587
3 589 590 587
3 587 590 585
3 590 588 585
3 588 591 589
3 591 592 589
3 589 592 590
3 592 593 590
3 590 593 588
3 593 591 588
3 591 594 592
3 594 595 592
3 592 595 593
3 595 596 593
3 593 596 591
3 596 594 591
3 594 597 595
3 597 598 595
3 595 598 596
3 598 599 596
3 596 599 594
3 599 597 594
3 597 600 598
3 600 601 598
3 598 601 599
3 601 602 599
3 599 602 597
3 602 600 597
3 600 603 601
3 603 604 601
3 601 604 602
3 604 605 602
3 602 605 600
3 605 603 600
3 603 606 604
3 606 607 604
3 604 607 605
3 607 608 605
3 605 608 603
3 608 606 603
3 606 609 607
3 609 610 607
3 607 610 608
3 610 611 608
3 608 611 606
3 611 609 606
3 609 612 610
3 612 613 610
3 610 613 611
3 613 614 611
3 611 614 609
3 614 612 609
3 612 615 613
3 615 616 613
3 613 616 614
3 616 617 614
3 614 617 612
3 617 615 612
3 615 618 616
3 618 619 616
3 616 619 617
3 619 620 617
3 617 620 615
3 620 618 615
3 621 0 1
3 622 619 618
3 621 1 2
3 622 620 619
3 621 2 0
3 622 618 620
