ply
format ascii 1.0
element vertex 140
property float x
property float y
property float z
element face 276
property list uchar int vertex_indices
end_header
-111.717 -77.0467 40
-138.51 -55.0888 20
-138.51 -55.0888 -20
-111.717 -77.0467 -40
-84.9244 -99.0045 -20
-84.9244 -99.0045 20
-111.353 -76.6026 -40
-78.5491 -65.472 -20
-78.5491 -65.472 20
-111.353 -76.6026 40
-144.157 -87.7332 20
-144.157 -87.7332 -20
-112.286 -73.8525 -40
-81.6567 -57.6715 -20
-81.6567 -57.6715 20
-112.286 -73.8525 40
-142.916 -90.0336 20
-142.916 -90.0336 -20
-113.738 -71.1053 -40
-100.894 -38.9331 -20
-100.894 -38.9331 20
-113.738 -71.1053 40
-126.581 -103.278 20
-126.581 -103.278 -20
-117.441 -69.627 -40
-101.026 -39.1222 -20
-101.026 -39.1222 20
-117.441 -69.627 40
-133.856 -100.132 20
-133.856 -100.132 -20
-127.198 -64.3764 -40
-106.3 -36.7494 -20
-106.3 -36.7494 20
-127.198 -64.3764 40
-148.097 -92.0033 20
-148.097 -92.0033 -20
-138.457 -55.8595 -40
-124.643 -24.0923 -20
-124.643 -24.0923 20
-138.457 -55.8595 40
-152.272 -87.6268 20
-152.272 -87.6268 -20
-156.135 -48.1722 -40
-159.485 -13.6935 -20
-159.485 -13.6935 20
-156.135 -48.1722 40
-152.785 -82.6508 20
-152.785 -82.6508 -20
-250.373 -57.3286 -40
-270.572 -29.1861 -20
-270.572 -29.1861 20
-250.373 -57.3286 40
-230.174 -85.4712 20
-230.174 -85.4712 -20
-291.737 -87.0171 -40
-315.38 -61.6987 -20
-315.38 -61.6987 20
-291.737 -87.0171 40
-268.095 -112.336 20
-268.095 -112.336 -20
-318.559 -112.064 -40
-344.545 -89.157 -20
-344.545 -89.157 20
-318.559 -112.064 40
-292.573 -134.971 20
-292.573 -134.971 -20
-342.848 -139.618 -40
-372.082 -121.034 -20
-372.082 -121.034 20
-342.848 -139.618 40
-313.614 -158.201 20
-313.614 -158.201 -20
-361.25 -168.566 -40
-394.383 -158.455 -20
-394.383 -158.455 20
-361.25 -168.566 40
-328.118 -178.677 20
-328.118 -178.677 -20
-369.495 -195.583 -40
-403.584 -189.422 -20
-403.584 -189.422 20
-369.495 -195.583 40
-335.406 -201.743 20
-335.406 -201.743 -20
-374.071 -220.905 -40
-407.41 -211.499 -20
-407.41 -211.499 20
-374.071 -220.905 40
-340.731 -230.311 20
-340.731 -230.311 -20
-379.39 -239.76 -40
-404.629 -216.033 -20
-404.629 -216.033 20
-379.39 -239.76 40
-354.152 -263.488 20
-354.152 -263.488 -20
-382.515 -243.084 -40
-350.179 -230.658 -20
-350.179 -230.658 20
-382.515 -243.084 40
-414.85 -255.509 20
-414.85 -255.509 -20
-385.623 -234.994 -40
-351.283 -230.437 -20
-351.283 -230.437 20
-385.623 -234.994 40
-419.963 -239.55 20
-419.963 -239.55 -20
-393.172 -178.097 -40
-358.967 -172.619 -20
-358.967 -172.619 20
-393.172 -178.097 40
-427.378 -183.575 20
-427.378 -183.575 -20
-398.017 -147.848 40
-432.418 -143.779 20
-432.418 -143.779 -20
-398.017 -147.848 -40
-363.616 -151.917 -20
-363.616 -151.917 20
-393.211 -107.211 40
-426.635 -98.1115 20
-426.635 -98.1115 -20
-393.211 -107.211 -40
-359.786 -116.311 -20
-359.786 -116.311 20
-382.661 -68.4575 40
-415.612 -57.7717 20
-415.612 -57.7717 -20
-382.661 -68.4575 -40
-349.709 -79.1434 -20
-349.709 -79.1434 20
-371.304 -33.4373 40
-404.256 -22.7514 20
-404.256 -22.7514 -20
-371.304 -33.4373 -40
-338.352 -44.1231 -20
-338.352 -44.1231 20
-111.717 -77.0467 0
-371.304 -33.4373 0
3 0 6 1
3 6 7 1
3 1 7 2
3 7 8 2
3 2 8 3
3 8 9 3
3 3 9 4
3 9 10 4
3 4 10 5
3 10 11 5
3 5 11 0
3 11 6 0
3 6 12 7
3 12 13 7
3 7 13 8
3 13 14 8
3 8 14 9
3 14 15 9
3 9 15 10
3 15 16 10
3 10 16 11
3 16 17 11
3 11 17 6
3 17 12 6
3 12 18 13
3 18 19 13
3 13 19 14
3 19 20 14
3 14 20 15
3 20 21 15
3 15 21 16
3 21 22 16
3 16 22 17
3 22 23 17
3 17 23 12
3 23 18 12
3 18 24 19
3 24 25 19
3 19 25 20
3 25 26 20
3 20 26 21
3 26 27 21
3 21 27 22
3 27 28 22
3 22 28 23
3 28 29 23
3 23 29 18
3 29 24 18
3 24 30 25
3 30 31 25
3 25 31 26
3 31 32 26
3 26 32 27
3 32 33 27
3 27 33 28
3 33 34 28
3 28 34 29
3 34 35 29
3 29 35 24
3 35 30 24
3 30 36 31
3 36 37 31
3 31 37 32
3 37 38 32
3 32 38 33
3 38 39 33
3 33 39 34
3 39 40 34
3 34 40 35
3 40 41 35
3 35 41 30
3 41 36 30
3 36 42 37
3 42 43 37
3 37 43 38
3 43 44 38
3 38 44 39
3 44 45 39
3 39 45 40
3 45 46 40
3 40 46 41
3 46 47 41
3 41 47 36
3 47 42 36
3 42 48 43
3 48 49 43
3 43 49 44
3 49 50 44
3 44 50 45
3 50 51 45
3 45 51 46
3 51 52 46
3 46 52 47
3 52 53 47
3 47 53 42
3 53 48 42
3 48 54 49
3 54 55 49
3 49 55 50
3 55 56 50
3 50 56 51
3 56 57 51
3 51 57 52
3 57 58 52
3 52 58 53
3 58 59 53
3 53 59 48
3 59 54 48
3 54 60 55
3 60 61 55
3 55 61 56
3 61 62 56
3 56 62 57
3 62 63 57
3 57 63 58
3 63 64 58
3 58 64 59
3 64 65 59
3 59 65 54
3 65 60 54
3 60 66 61
3 66 67 61
3 61 67 62
3 67 68 62
3 62 68 63
3 68 69 63
3 63 69 64
3 69 70 64
3 64 70 65
3 70 71 65
3 65 71 60
3 71 66 60
3 66 72 67
3 72 73 67
3 67 73 68
3 73 74 68
3 68 74 69
3 74 75 69
3 69 75 70
3 75 76 70
3 70 76 71
3 76 77 71
3 71 77 66
3 77 72 66
3 72 78 73
3 78 79 73
3 73 79 74
3 79 80 74
3 74 80 75
3 80 81 75
3 75 81 76
3 81 82 76
3 76 82 77
3 82 83 77
3 77 83 72
3 83 78 72
3 78 84 79
3 84 85 79
3 79 85 80
3 85 86 80
3 80 86 81
3 86 87 81
3 81 87 82
3 87 88 82
3 82 88 83
3 88 89 83
3 83 89 78
3 89 84 78
3 84 90 85
3 90 91 85
3 85 91 86
3 91 92 86
3 86 92 87
3 92 93 87
3 87 93 88
3 93 94 88
3 88 94 89
3 94 95 89
3 89 95 84
3 95 90 84
3 90 96 91
3 96 97 91
3 91 97 92
3 97 98 92
3 92 98 93
3 98 99 93
3 93 99 94
3 99 100 94
3 94 100 95
3 100 101 95
3 95 101 90
3 101 96 90
3 96 102 97
3 102 103 97
3 97 103 98
3 103 104 98
3 98 104 99
3 104 105 99
3 99 105 100
3 105 106 100
3 100 106 101
3 106 107 101
3 101 107 96
3 107 102 96
3 102 108 103
3 108 109 103
3 103 109 104
3 109 110 104
3 104 110 105
3 110 111 105
3 105 111 106
3 111 112 106
3 106 112 107
3 112 113 107
3 107 113 102
3 113 108 102
3 108 114 109
3 114 115 109
3 109 115 110
3 115 116 110
3 110 116 111
3 116 117 111
3 111 117 112
3 117 118 112
3 112 118 113
3 118 119 113
3 113 119 108
3 119 114 108
3 114 120 115
3 120 121 115
3 115 121 116
3 121 122 116
3 116 122 117
3 122 123 117
3 117 123 118
3 123 124 118
3 118 124 119
3 124 125 119
3 119 125 114
3 125 120 114
3 120 126 121
3 126 127 121
3 121 127 122
3 127 128 122
3 122 128 123
3 128 129 123
3 123 129 124
3 129 130 124
3 124 130 125
3 130 131 125
3 125 131 120
3 131 126 120
3 126 132 127
3 132 133 127
3 127 133 128
3 133 134 128
3 128 134 129
3 134 135 129
3 129 135 130
3 135 136 130
3 130 136 131
3 136 137 131
3 131 137 126
3 137 132 126
3 138 0 1
3 139 133 132
3 138 1 2
3 139 134 133
3 138 2 3
3 139 135 134
3 138 3 4
3 139 136 135
3 138 4 5
3 139 137 136
3 138 5 0
3 139 132 137
