ply
format ascii 1.0
element vertex 392
property float x
property float y
property float z
element face 780
property list uchar int vertex_indices
end_header
-455.816 -351.605 1071.82
-434.074 -329.693 1047.99
-395.234 -329.693 1051.51
-378.135 -351.605 1078.87
-399.877 -373.518 1102.71
-438.717 -373.518 1099.18
-459.28 -293.655 1128.02
-441.832 -264.98 1110.2
-403.99 -264.98 1106.74
-383.597 -293.655 1121.09
-401.045 -322.33 1138.9
-438.887 -322.33 1142.36
-456.028 -278.807 1150.14
-437.211 -252.133 1132.72
-400.217 -252.133 1133.39
-382.04 -278.807 1151.48
-400.857 -305.481 1168.89
-437.851 -305.481 1168.23
-454.978 -264.849 1177.34
-439.171 -236.41 1161.94
-403.605 -236.41 1156.37
-383.845 -264.849 1166.21
-399.652 -293.288 1181.61
-435.219 -293.288 1187.18
-450.92 -257.213 1196.29
-437.076 -230.659 1178.17
-402.939 -230.659 1170.45
-382.645 -257.213 1180.84
-396.489 -283.767 1198.96
-430.626 -283.767 1206.68
-446.998 -249.201 1196.55
-427.057 -225.637 1182.3
-393.63 -225.637 1188.51
-380.143 -249.201 1208.98
-400.084 -272.764 1223.23
-433.511 -272.764 1217.02
-447.156 -244.095 1222.85
-433.199 -214.342 1210.81
-400.858 -214.342 1197.42
-382.475 -244.095 1196.08
-396.433 -273.849 1208.12
-428.773 -273.849 1221.5
-423.593 -243.324 1247.62
-434.856 -217.272 1225.48
-424.562 -217.272 1190.98
-403.006 -243.324 1178.63
-391.743 -269.377 1200.77
-402.037 -269.377 1235.27
-414.977 -240.609 1250.88
-431.142 -214.961 1229.67
-425.506 -214.961 1193.1
-403.706 -240.609 1177.74
-387.541 -266.258 1198.95
-393.177 -266.258 1235.52
-406.407 -235.786 1253.13
-429.265 -214.01 1231.98
-425.833 -214.01 1194.14
-399.544 -235.786 1177.44
-376.686 -257.561 1198.59
-380.118 -257.561 1236.44
-362.957 -231.497 1201.24
-376.223 -200.397 1220.68
-412.472 -200.397 1235.07
-435.455 -231.497 1230.02
-422.19 -262.598 1210.58
-385.941 -262.598 1196.19
-361.895 -229.815 1202.12
-378.46 -197.14 1218.18
-417.237 -197.14 1228
-439.448 -229.815 1221.75
-422.883 -262.489 1205.69
-384.107 -262.489 1195.88
-366.793 -227.368 1184.84
-387.574 -192.375 1189.8
-423.158 -192.375 1210.16
-437.96 -227.368 1225.57
-417.179 -262.362 1220.61
-381.595 -262.362 1200.24
-381.8 -229.759 1164.07
-395.774 -195.119 1178.39
-423.254 -195.119 1207.45
-436.761 -229.759 1222.21
-422.787 -264.398 1207.89
-395.307 -264.398 1178.83
-400.26 -229.942 1148.35
-413.299 -196.209 1162.94
-436.689 -196.209 1194.15
-447.04 -229.942 1210.76
-434.001 -263.675 1196.17
-410.611 -263.675 1164.96
-424 -231.201 1132.01
-431.205 -198.45 1149.88
-451.093 -198.45 1182.26
-463.776 -231.201 1196.77
-456.571 -263.953 1178.89
-436.683 -263.953 1146.51
-453.534 -228.262 1115.29
-456.515 -196.692 1134.35
-472.385 -196.692 1167.78
-485.275 -228.262 1182.14
-482.294 -259.833 1163.07
-466.423 -259.833 1129.65
-484.521 -222.963 1101.85
-487.32 -192 1120
-499.76 -192 1153.78
-509.401 -222.963 1169.41
-506.601 -253.926 1151.26
-494.162 -253.926 1117.48
-503.498 -220.093 1096.25
-511.271 -189.786 1111.94
-527.61 -189.786 1142.89
-536.175 -220.093 1158.16
-528.402 -250.401 1142.47
-512.063 -250.401 1111.52
-526.42 -219.752 1085.37
-533.756 -190.311 1100.71
-547.59 -190.311 1131.77
-554.088 -219.752 1147.49
-546.752 -249.193 1132.14
-532.918 -249.193 1101.09
-546.299 -220.059 1077.65
-558.592 -192.293 1090.57
-570.57 -192.293 1121.32
-570.254 -220.059 1139.15
-557.961 -247.826 1126.23
-545.984 -247.826 1095.48
-557.042 -223.952 1074.96
-565.836 -196.252 1088.35
-581.957 -196.252 1116
-589.284 -223.952 1130.24
-580.491 -251.652 1116.85
-564.37 -251.652 1089.21
-573.189 -224.41 1066.88
-573.834 -198.331 1083.62
-586.719 -198.331 1111.82
-598.96 -224.41 1123.27
-598.315 -250.489 1106.52
-585.43 -250.489 1078.32
-585.502 -221.419 1062.36
-590.772 -195.446 1076.42
-602.471 -195.446 1104.04
-608.9 -221.419 1117.61
-603.63 -247.393 1103.55
-591.931 -247.393 1075.93
-591.518 -221.176 1061.21
-601.733 -196.267 1071.99
-616.66 -196.267 1096.85
-621.371 -221.176 1110.94
-611.156 -246.085 1100.16
-596.229 -246.085 1075.29
-596.714 -222.544 1059.89
-607.349 -198.351 1069.14
-626.177 -198.351 1089.86
-634.37 -222.544 1101.34
-623.735 -246.736 1092.08
-604.907 -246.736 1071.36
-602.018 -223.025 1056.44
-617.753 -201.378 1060.01
-636.498 -201.378 1079.45
-639.508 -223.025 1095.3
-623.773 -244.672 1091.72
-605.027 -244.672 1072.29
-600.616 -225.378 1057.95
-610.704 -201.486 1068.5
-634.999 -201.486 1082.42
-649.205 -225.378 1085.79
-639.116 -249.271 1075.23
-614.822 -249.271 1061.31
-600.08 -224.117 1059.92
-614.685 -199.079 1060.81
-643.134 -199.079 1066.44
-656.978 -224.117 1071.18
-642.372 -249.155 1070.29
-613.923 -249.155 1064.66
-600.274 -224.768 1060.24
-615.557 -199.053 1062.51
-645.423 -199.053 1059.67
-660.006 -224.768 1054.57
-644.724 -250.484 1052.3
-614.858 -250.484 1055.14
-598.526 -223.696 1052.34
-615.346 -203.785 1069.12
-646.257 -203.785 1066.77
-660.347 -223.696 1047.64
-643.527 -243.606 1030.85
-612.616 -243.606 1033.2
-599.053 -216.347 1030.14
-608.547 -192.848 1049.68
-638.314 -192.848 1061.42
-658.589 -216.347 1053.63
-649.095 -239.846 1034.09
-619.327 -239.846 1022.35
-600.88 -212.018 1022.8
-617.258 -183.594 1026.38
-647.74 -183.594 1039.02
-661.843 -212.018 1048.09
-645.465 -240.442 1044.51
-614.984 -240.442 1031.86
-604.175 -212.866 1012.51
-622.121 -184.073 1014.74
-652.419 -184.073 1030.17
-664.77 -212.866 1043.37
-646.825 -241.658 1041.15
-616.527 -241.658 1025.72
-606.827 -214.753 1005.14
-632.189 -194.255 992.423
-663.835 -194.255 1007.37
-670.12 -214.753 1035.04
-644.759 -235.251 1047.75
-613.112 -235.251 1032.8
-614.919 -224.259 988.709
-648.793 -221.042 976.953
-676.075 -221.042 1000.44
-669.483 -224.259 1035.69
-635.609 -227.476 1047.44
-608.327 -227.476 1023.95
-618.409 -266.533 983.211
-653.488 -259.968 973.449
-680.142 -259.968 999.112
-671.716 -266.533 1034.54
-636.637 -273.098 1044.3
-609.983 -273.098 1018.64
-614.579 -309.765 1011.98
-624.679 -305.86 975.559
-661.439 -305.86 965.93
-688.099 -309.765 992.726
-677.999 -313.671 1029.15
-641.239 -313.671 1038.78
-612.181 -361.715 985.937
-639.915 -357.343 958.867
-677.499 -357.343 969.279
-687.35 -361.715 1006.76
-659.617 -366.088 1033.83
-622.033 -366.088 1023.42
-621.024 -410.238 1016.2
-614.207 -403.364 977.391
-644.64 -403.364 951.433
-681.89 -410.238 964.285
-688.707 -417.111 1003.1
-658.274 -417.111 1029.05
-662.44 -455.633 1020.59
-622.628 -446.901 1016.14
-605.681 -446.901 978.811
-628.546 -455.633 945.918
-668.359 -464.365 950.359
-685.306 -464.365 987.693
-662.002 -505.422 1019.77
-621.726 -496.476 1027.63
-593.715 -496.476 996.339
-605.98 -505.422 957.178
-646.255 -514.369 949.312
-674.266 -514.369 980.608
-668.136 -552.197 997.352
-645.994 -528.733 1025.78
-603.004 -528.733 1024.82
-582.157 -552.197 995.426
-604.299 -575.66 966.998
-647.288 -575.66 967.961
-658.23 -588.974 1054.45
-641.459 -550.869 1040.21
-607.707 -550.869 1011.98
-590.727 -588.974 997.995
-607.497 -627.078 1012.23
-641.249 -627.078 1040.46
-603.473 -588.56 1119.14
-583.611 -549.608 1108.5
-542.848 -549.608 1089.44
-521.946 -588.56 1081.02
-541.808 -627.512 1091.66
-582.571 -627.512 1110.72
-591.563 -587.297 1132.48
-571.493 -565.805 1167.86
-525.659 -565.805 1171.76
-499.895 -587.297 1140.29
-519.965 -608.789 1104.92
-565.799 -608.789 1101.02
-567.738 -598.71 1101.82
-592.704 -591.427 1140.97
-571.315 -591.427 1182.83
-524.962 -598.71 1185.53
-499.997 -605.994 1146.38
-521.385 -605.994 1104.53
-520.527 -609.62 1105.3
-564.624 -590.734 1103.65
-592.214 -590.734 1142.93
-575.707 -609.62 1183.86
-531.609 -628.507 1185.5
-504.019 -628.507 1146.22
-508.139 -616.21 1118.66
-541.831 -582.056 1108.69
-584.559 -582.056 1132.68
-593.596 -616.21 1166.63
-559.904 -650.365 1176.6
-517.176 -650.365 1152.61
-506.59 -622.909 1123.5
-531.371 -579.648 1127.29
-580.096 -579.648 1138.52
-604.039 -622.909 1145.95
-579.258 -666.17 1142.15
-530.534 -666.17 1130.93
-506.629 -623.323 1129.42
-534.69 -594.33 1160.61
-585.53 -594.33 1156.57
-608.307 -623.323 1121.33
-580.246 -652.317 1090.14
-529.406 -652.317 1094.18
-515.649 -617.973 1152.13
-562.433 -605.107 1170.83
-603.883 -605.107 1139.43
-598.549 -617.973 1089.33
-551.765 -630.838 1070.63
-510.315 -630.838 1102.03
-504.95 -610.321 1134.12
-541.325 -585.028 1163.21
-592.097 -585.028 1148
-606.493 -610.321 1103.71
-570.118 -635.614 1074.62
-519.346 -635.614 1089.83
-500.202 -602.178 1115.37
-528.292 -573.648 1151.6
-582.269 -573.648 1150
-608.155 -602.178 1112.16
-580.065 -630.708 1075.92
-526.089 -630.708 1077.53
-537.451 -593.416 1159.48
-588.395 -577.096 1146.7
-604.922 -577.096 1094.24
-570.505 -593.416 1054.56
-519.561 -609.735 1067.34
-503.034 -609.735 1119.8
-580.783 -580.031 1151.88
-587.993 -540.244 1113.14
-556.532 -540.244 1066.81
-517.861 -580.031 1059.23
-510.651 -619.818 1097.97
-542.112 -619.818 1144.3
-569.586 -564.515 1159.93
-566.515 -520.4 1123.96
-527.835 -520.4 1082.1
-492.226 -564.515 1076.19
-495.296 -608.63 1112.16
-533.977 -608.63 1154.02
-530.402 -544.619 1195.41
-528.989 -496.624 1162.87
-500.388 -496.624 1112.42
-473.2 -544.619 1094.49
-474.612 -592.614 1127.03
-503.213 -592.614 1177.48
-485.021 -534.487 1218.95
-489.188 -484.433 1187.99
-477.41 -484.433 1130.18
-461.465 -534.487 1103.32
-457.298 -584.541 1134.28
-469.076 -584.541 1192.09
-392.528 -529.659 1182.49
-425.12 -479.505 1187.22
-482.763 -479.505 1170.56
-507.813 -529.659 1149.18
-475.222 -579.813 1144.46
-417.579 -579.813 1161.11
-460.516 -524.073 1204.87
-455.147 -471.318 1174.72
-439.078 -471.318 1115.87
-428.378 -524.073 1087.18
-433.746 -576.828 1117.33
-449.815 -576.828 1176.18
-433.162 -520.094 1167.05
-401.404 -493.052 1212.92
-339.412 -493.052 1211.91
-309.179 -520.094 1165.02
-340.937 -547.135 1119.14
-402.928 -547.135 1120.16
-433.444 -589.299 1203.55
-403.409 -545.123 1236.95
-340.472 -545.123 1239.77
-307.57 -589.299 1209.19
-337.605 -633.476 1175.8
-400.542 -633.476 1172.98
-432.32 -632.964 1242.03
-415.494 -588.605 1284.99
-356.378 -588.605 1309.51
-314.088 -632.964 1291.08
-330.914 -677.323 1248.12
-390.03 -677.323 1223.6
-456.49 -678.415 1297.69
-439.402 -633.362 1341.32
-379.362 -633.362 1366.22
-336.411 -678.415 1347.5
-353.5 -723.467 1303.88
-413.539 -723.467 1278.97
-416.976 -351.605 1075.35
-396.451 -678.415 1322.6
3 0 6 1
3 6 7 1
3 1 7 2
3 7 8 2
3 2 8 3
3 8 9 3
3 3 9 4
3 9 10 4
3 4 10 5
3 10 11 5
3 5 11 0
3 11 6 0
3 6 12 7
3 12 13 7
3 7 13 8
3 13 14 8
3 8 14 9
3 14 15 9
3 9 15 10
3 15 16 10
3 10 16 11
3 16 17 11
3 11 17 6
3 17 12 6
3 12 18 13
3 18 19 13
3 13 19 14
3 19 20 14
3 14 20 15
3 20 21 15
3 15 21 16
3 21 22 16
3 16 22 17
3 22 23 17
3 17 23 12
3 23 18 12
3 18 24 19
3 24 25 19
3 19 25 20
3 25 26 20
3 20 26 21
3 26 27 21
3 21 27 22
3 27 28 22
3 22 28 23
3 28 29 23
3 23 29 18
3 29 24 18
3 24 30 25
3 30 31 25
3 25 31 26
3 31 32 26
3 26 32 27
3 32 33 27
3 27 33 28
3 33 34 28
3 28 34 29
3 34 35 29
3 29 35 24
3 35 30 24
3 30 36 31
3 36 37 31
3 31 37 32
3 37 38 32
3 32 38 33
3 38 39 33
3 33 39 34
3 39 40 34
3 34 40 35
3 40 41 35
3 35 41 30
3 41 36 30
3 36 42 37
3 42 43 37
3 37 43 38
3 43 44 38
3 38 44 39
3 44 45 39
3 39 45 40
3 45 46 40
3 40 46 41
3 46 47 41
3 41 47 36
3 47 42 36
3 42 48 43
3 48 49 43
3 43 49 44
3 49 50 44
3 44 50 45
3 50 51 45
3 45 51 46
3 51 52 46
3 46 52 47
3 52 53 47
3 47 53 42
3 53 48 42
3 48 54 49
3 54 55 49
3 49 55 50
3 55 56 50
3 50 56 51
3 56 57 51
3 51 57 52
3 57 58 52
3 52 58 53
3 58 59 53
3 53 59 48
3 59 54 48
3 54 60 55
3 60 61 55
3 55 61 56
3 61 62 56
3 56 62 57
3 62 63 57
3 57 63 58
3 63 64 58
3 58 64 59
3 64 65 59
3 59 65 54
3 65 60 54
3 60 66 61
3 66 67 61
3 61 67 62
3 67 68 62
3 62 68 63
3 68 69 63
3 63 69 64
3 69 70 64
3 64 70 65
3 70 71 65
3 65 71 60
3 71 66 60
3 66 72 67
3 72 73 67
3 67 73 68
3 73 74 68
3 68 74 69
3 74 75 69
3 69 75 70
3 75 76 70
3 70 76 71
3 76 77 71
3 71 77 66
3 77 72 66
3 72 78 73
3 78 79 73
3 73 79 74
3 79 80 74
3 74 80 75
3 80 81 75
3 75 81 76
3 81 82 76
3 76 82 77
3 82 83 77
3 77 83 72
3 83 78 72
3 78 84 79
3 84 85 79
3 79 85 80
3 85 86 80
3 80 86 81
3 86 87 81
3 81 87 82
3 87 88 82
3 82 88 83
3 88 89 83
3 83 89 78
3 89 84 78
3 84 90 85
3 90 91 85
3 85 91 86
3 91 92 86
3 86 92 87
3 92 93 87
3 87 93 88
3 93 94 88
3 88 94 89
3 94 95 89
3 89 95 84
3 95 90 84
3 90 96 91
3 96 97 91
3 91 97 92
3 97 98 92
3 92 98 93
3 98 99 93
3 93 99 94
3 99 100 94
3 94 100 95
3 100 101 95
3 95 101 90
3 101 96 90
3 96 102 97
3 102 103 97
3 97 103 98
3 103 104 98
3 98 104 99
3 104 105 99
3 99 105 100
3 105 106 100
3 100 106 101
3 106 107 101
3 101 107 96
3 107 102 96
3 102 108 103
3 108 109 103
3 103 109 104
3 109 110 104
3 104 110 105
3 110 111 105
3 105 111 106
3 111 112 106
3 106 112 107
3 112 113 107
3 107 113 102
3 113 108 102
3 108 114 109
3 114 115 109
3 109 115 110
3 115 116 110
3 110 116 111
3 116 117 111
3 111 117 112
3 117 118 112
3 112 118 113
3 118 119 113
3 113 119 108
3 119 114 108
3 114 120 115
3 120 121 115
3 115 121 116
3 121 122 116
3 116 122 117
3 122 123 117
3 117 123 118
3 123 124 118
3 118 124 119
3 124 125 119
3 119 125 114
3 125 120 114
3 120 126 121
3 126 127 121
3 121 127 122
3 127 128 122
3 122 128 123
3 128 129 123
3 123 129 124
3 129 130 124
3 124 130 125
3 130 131 125
3 125 131 120
3 131 126 120
3 126 132 127
3 132 133 127
3 127 133 128
3 133 134 128
3 128 134 129
3 134 135 129
3 129 135 130
3 135 136 130
3 130 136 131
3 136 137 131
3 131 137 126
3 137 132 126
3 132 138 133
3 138 139 133
3 133 139 134
3 139 140 134
3 134 140 135
3 140 141 135
3 135 141 136
3 141 142 136
3 136 142 137
3 142 143 137
3 137 143 132
3 143 138 132
3 138 144 139
3 144 145 139
3 139 145 140
3 145 146 140
3 140 146 141
3 146 147 141
3 141 147 142
3 147 148 142
3 142 148 143
3 148 149 143
3 143 149 138
3 149 144 138
3 144 150 145
3 150 151 145
3 145 151 146
3 151 152 146
3 146 152 147
3 152 153 147
3 147 153 148
3 153 154 148
3 148 154 149
3 154 155 149
3 149 155 144
3 155 150 144
3 150 156 151
3 156 157 151
3 151 157 152
3 157 158 152
3 152 158 153
3 158 159 153
3 153 159 154
3 159 160 154
3 154 160 155
3 160 161 155
3 155 161 150
3 161 156 150
3 156 162 157
3 162 163 157
3 157 163 158
3 163 164 158
3 158 164 159
3 164 165 159
3 159 165 160
3 165 166 160
3 160 166 161
3 166 167 161
3 161 167 156
3 167 162 156
3 162 168 163
3 168 169 163
3 163 169 164
3 169 170 164
3 164 170 165
3 170 171 165
3 165 171 166
3 171 172 166
3 166 172 167
3 172 173 167
3 167 173 162
3 173 168 162
3 168 174 169
3 174 175 169
3 169 175 170
3 175 176 170
3 170 176 171
3 176 177 171
3 171 177 172
3 177 178 172
3 172 178 173
3 178 179 173
3 173 179 168
3 179 174 168
3 174 180 175
3 180 181 175
3 175 181 176
3 181 182 176
3 176 182 177
3 182 183 177
3 177 183 178
3 183 184 178
3 178 184 179
3 184 185 179
3 179 185 174
3 185 180 174
3 180 186 181
3 186 187 181
3 181 187 182
3 187 188 182
3 182 188 183
3 188 189 183
3 183 189 184
3 189 190 184
3 184 190 185
3 190 191 185
3 185 191 180
3 191 186 180
3 186 192 187
3 192 193 187
3 187 193 188
3 193 194 188
3 188 194 189
3 194 195 189
3 189 195 190
3 195 196 190
3 190 196 191
3 196 197 191
3 191 197 186
3 197 192 186
3 192 198 193
3 198 199 193
3 193 199 194
3 199 200 194
3 194 200 195
3 200 201 195
3 195 201 196
3 201 202 196
3 196 202 197
3 202 203 197
3 197 203 192
3 203 198 192
3 198 204 199
3 204 205 199
3 199 205 200
3 205 206 200
3 200 206 201
3 206 207 201
3 201 207 202
3 207 208 202
3 202 208 203
3 208 209 203
3 203 209 198
3 209 204 198
3 204 210 205
3 210 211 205
3 205 211 206
3 211 212 206
3 206 212 207
3 212 213 207
3 207 213 208
3 213 214 208
3 208 214 209
3 214 215 209
3 209 215 204
3 215 210 204
3 210 216 211
3 216 217 211
3 211 217 212
3 217 218 212
3 212 218 213
3 218 219 213
3 213 219 214
3 219 220 214
3 214 220 215
3 220 221 215
3 215 221 210
3 221 216 210
3 216 222 217
3 222 223 217
3 217 223 218
3 223 224 218
3 218 224 219
3 224 225 219
3 219 225 220
3 225 226 220
3 220 226 221
3 226 227 221
3 221 227 216
3 227 222 216
3 222 228 223
3 228 229 223
3 223 229 224
3 229 230 224
3 224 230 225
3 230 231 225
3 225 231 226
3 231 232 226
3 226 232 227
3 232 233 227
3 227 233 222
3 233 228 222
3 228 234 229
3 234 235 229
3 229 235 230
3 235 236 230
3 230 236 231
3 236 237 231
3 231 237 232
3 237 238 232
3 232 238 233
3 238 239 233
3 233 239 228
3 239 234 228
3 234 240 235
3 240 241 235
3 235 241 236
3 241 242 236
3 236 242 237
3 242 243 237
3 237 243 238
3 243 244 238
3 238 244 239
3 244 245 239
3 239 245 234
3 245 240 234
3 240 246 241
3 246 247 241
3 241 247 242
3 247 248 242
3 242 248 243
3 248 249 243
3 243 249 244
3 249 250 244
3 244 250 245
3 250 251 245
3 245 251 240
3 251 246 240
3 246 252 247
3 252 253 247
3 247 253 248
3 253 254 248
3 248 254 249
3 254 255 249
3 249 255 250
3 255 256 250
3 250 256 251
3 256 257 251
3 251 257 246
3 257 252 246
3 252 258 253
3 258 259 253
3 253 259 254
3 259 260 254
3 254 260 255
3 260 261 255
3 255 261 256
3 261 262 256
3 256 262 257
3 262 263 257
3 257 263 252
3 263 258 252
3 258 264 259
3 264 265 259
3 259 265 260
3 265 266 260
3 260 266 261
3 266 267 261
3 261 267 262
3 267 268 262
3 262 268 263
3 268 269 263
3 263 269 258
3 269 264 258
3 264 270 265
3 270 271 265
3 265 271 266
3 271 272 266
3 266 272 267
3 272 273 267
3 267 273 268
3 273 274 268
3 268 274 269
3 274 275 269
3 269 275 264
3 275 270 264
3 270 276 271
3 276 277 271
3 271 277 272
3 277 278 272
3 272 278 273
3 278 279 273
3 273 279 274
3 279 280 274
3 274 280 275
3 280 281 275
3 275 281 270
3 281 276 270
3 276 282 277
3 282 283 277
3 277 283 278
3 283 284 278
3 278 284 279
3 284 285 279
3 279 285 280
3 285 286 280
3 280 286 281
3 286 287 281
3 281 287 276
3 287 282 276
3 282 288 283
3 288 289 283
3 283 289 284
3 289 290 284
3 284 290 285
3 290 291 285
3 285 291 286
3 291 292 286
3 286 292 287
3 292 293 287
3 287 293 282
3 293 288 282
3 288 294 289
3 294 295 289
3 289 295 290
3 295 296 290
3 290 296 291
3 296 297 291
3 291 297 292
3 297 298 292
3 292 298 293
3 298 299 293
3 293 299 288
3 299 294 288
3 294 300 295
3 300 301 295
3 295 301 296
3 301 302 296
3 296 302 297
3 302 303 297
3 297 303 298
3 303 304 298
3 298 304 299
3 304 305 299
3 299 305 294
3 305 300 294
3 300 306 301
3 306 307 301
3 301 307 302
3 307 308 302
3 302 308 303
3 308 309 303
3 303 309 304
3 309 310 304
3 304 310 305
3 310 311 305
3 305 311 300
3 311 306 300
3 306 312 307
3 312 313 307
3 307 313 308
3 313 314 308
3 308 314 309
3 314 315 309
3 309 315 310
3 315 316 310
3 310 316 311
3 316 317 311
3 311 317 306
3 317 312 306
3 312 318 313
3 318 319 313
3 313 319 314
3 319 320 314
3 314 320 315
3 320 321 315
3 315 321 316
3 321 322 316
3 316 322 317
3 322 323 317
3 317 323 312
3 323 318 312
3 318 324 319
3 324 325 319
3 319 325 320
3 325 326 320
3 320 326 321
3 326 327 321
3 321 327 322
3 327 328 322
3 322 328 323
3 328 329 323
3 323 329 318
3 329 324 318
3 324 330 325
3 330 331 325
3 325 331 326
3 331 332 326
3 326 332 327
3 332 333 327
3 327 333 328
3 333 334 328
3 328 334 329
3 334 335 329
3 329 335 324
3 335 330 324
3 330 336 331
3 336 337 331
3 331 337 332
3 337 338 332
3 332 338 333
3 338 339 333
3 333 339 334
3 339 340 334
3 334 340 335
3 340 341 335
3 335 341 330
3 341 336 330
3 336 342 337
3 342 343 337
3 337 343 338
3 343 344 338
3 338 344 339
3 344 345 339
3 339 345 340
3 345 346 340
3 340 346 341
3 346 347 341
3 341 347 336
3 347 342 336
3 342 348 343
3 348 349 343
3 343 349 344
3 349 350 344
3 344 350 345
3 350 351 345
3 345 351 346
3 351 352 346
3 346 352 347
3 352 353 347
3 347 353 342
3 353 348 342
3 348 354 349
3 354 355 349
3 349 355 350
3 355 356 350
3 350 356 351
3 356 357 351
3 351 357 352
3 357 358 352
3 352 358 353
3 358 359 353
3 353 359 348
3 359 354 348
3 354 360 355
3 360 361 355
3 355 361 356
3 361 362 356
3 356 362 357
3 362 363 357
3 357 363 358
3 363 364 358
3 358 364 359
3 364 365 359
3 359 365 354
3 365 360 354
3 360 366 361
3 366 367 361
3 361 367 362
3 367 368 362
3 362 368 363
3 368 369 363
3 363 369 364
3 369 370 364
3 364 370 365
3 370 371 365
3 365 371 360
3 371 366 360
3 366 372 367
3 372 373 367
3 367 373 368
3 373 374 368
3 368 374 369
3 374 375 369
3 369 375 370
3 375 376 370
3 370 376 371
3 376 377 371
3 371 377 366
3 377 372 366
3 372 378 373
3 378 379 373
3 373 379 374
3 379 380 374
3 374 380 375
3 380 381 375
3 375 381 376
3 381 382 376
3 376 382 377
3 382 383 377
3 377 383 372
3 383 378 372
3 378 384 379
3 384 385 379
3 379 385 380
3 385 386 380
3 380 386 381
3 386 387 381
3 381 387 382
3 387 388 382
3 382 388 383
3 388 389 383
3 383 389 378
3 389 384 378
3 390 0 1
3 391 385 384
3 390 1 2
3 391 386 385
3 390 2 3
3 391 387 386
3 390 3 4
3 391 388 387
3 390 4 5
3 391 389 388
3 390 5 0
3 391 384 389
